<?xml version="1.0" encoding="UTF-8"?>
<svg version="1.1" xmlns="http://www.w3.org/2000/svg" width="2000" height="1046">
<path d="M0 0 C103.95 0 207.9 0 315 0 C315 81 315 81 311 86 C305.96220239 89.53655638 302.19829962 90.58223167 296.02101135 90.48101807 C295.24732253 90.48443577 294.47363372 90.48785347 293.67649978 90.49137473 C291.09978548 90.49793143 288.5241271 90.47601516 285.94750977 90.45410156 C284.09428431 90.4529726 282.24105706 90.45360789 280.38783264 90.45587158 C275.36758865 90.45701776 270.34772807 90.43352389 265.32757306 90.40557575 C260.07720214 90.38054615 254.82682213 90.37821886 249.57640076 90.37347412 C239.63882882 90.36104895 229.7014332 90.32823345 219.76393884 90.28807616 C208.44841816 90.24334426 197.13288898 90.22136783 185.81730187 90.20129442 C162.54474768 90.15950045 139.27243516 90.0861537 116 90 C116 104.52 116 119.04 116 134 C174.41 134 232.82 134 293 134 C293 164.36 293 194.72 293 226 C234.59 226 176.18 226 116 226 C113.79725299 257.34575279 113.79725299 257.34575279 121 267 C125.65299364 271.21677549 129.99961047 271.12531838 136.11555481 271.13130188 C136.83273876 271.13341759 137.54992272 271.13553331 138.28883952 271.13771313 C140.69233089 271.14370521 143.09576964 271.14271355 145.49926758 271.1418457 C147.22246896 271.14487772 148.94566955 271.1483993 150.66886902 271.15237427 C154.38039552 271.16026031 158.09191243 271.16540708 161.80344582 271.16866493 C167.67398136 271.17457722 173.54445635 271.19111961 179.41496277 271.21000671 C181.4251413 271.21634401 183.43531986 271.22266964 185.44549847 271.22898388 C186.95550979 271.2337326 186.95550979 271.2337326 188.4960264 271.23857725 C202.16278619 271.28064782 215.82951765 271.31363125 229.49633789 271.32592773 C238.71572089 271.33430793 247.93495384 271.35679643 257.15426177 271.3952834 C262.0321245 271.41504403 266.90976291 271.42744856 271.78766823 271.42244911 C276.37687104 271.41780276 280.96564861 271.43160734 285.5547657 271.45946121 C287.23693699 271.46637296 288.91915226 271.4664997 290.60132217 271.45926094 C292.90255018 271.45036 295.20237955 271.46608431 297.50349426 271.48774719 C298.78973096 271.49013555 300.07596766 271.4925239 301.40118122 271.49498463 C306.60078068 272.2246345 310.00133223 274.17348876 313.91621399 277.75115967 C315.52896775 281.09760046 315.39268228 284.34671555 315.34057617 287.98144531 C315.34101425 288.7818222 315.34145233 289.5821991 315.34190369 290.40682983 C315.33981672 293.04751128 315.3164903 295.68755472 315.29296875 298.328125 C315.28737246 300.1608648 315.28310252 301.99360909 315.28010559 303.82635498 C315.26865939 308.64661075 315.23919411 313.46659469 315.20599365 318.28674316 C315.17528795 323.2067497 315.16159918 328.12680023 315.14648438 333.046875 C315.11432423 342.698036 315.06313055 352.34899538 315 362 C283.27943115 362.09139151 251.55889999 362.16211134 219.8382301 362.20426132 C216.08722154 362.20926372 212.33621325 362.21444105 208.58520508 362.21972656 C207.83849543 362.2207758 207.09178578 362.22182505 206.32244856 362.22290608 C194.25630314 362.24027734 182.19023451 362.27179679 170.12413453 362.30861118 C157.72896087 362.34611217 145.33382723 362.36825513 132.93859917 362.37635398 C125.29956857 362.38182285 117.66075507 362.39905031 110.02179135 362.43166587 C104.14896673 362.45545243 98.27625153 362.45779687 92.40337753 362.45243073 C90.00534167 362.45352561 87.60729711 362.46140763 85.20931053 362.4768219 C62.63504902 362.61473659 43.01246632 359.41605289 26.14477539 343.20214844 C24.74919943 341.81536463 23.37425338 340.40791664 22 339 C20.78183594 337.79537109 20.78183594 337.79537109 19.5390625 336.56640625 C5.58913565 322.06895667 -0.17098001 304.81870392 -0.12025452 285.00320435 C-0.12111053 283.78819748 -0.12196655 282.57319061 -0.12284851 281.32136536 C-0.12421451 277.95003218 -0.12108263 274.57875715 -0.11607273 271.20743099 C-0.11170323 267.51562651 -0.11316753 263.82382349 -0.11389065 260.13201714 C-0.11442213 252.96694448 -0.10980651 245.80188437 -0.10338932 238.63681494 C-0.09618823 230.3482888 -0.09539451 222.05977019 -0.09460449 213.77124023 C-0.08935454 191.88915817 -0.07539342 170.0070789 -0.0625 148.125 C-0.041875 99.24375 -0.02125 50.3625 0 0 Z " fill="#FFFFFF" transform="translate(1544,111)"/>
<path d="M0 0 C13.5866168 -0.09268116 27.17315839 -0.16375576 40.76002693 -0.20724869 C47.06897269 -0.22812315 53.37770216 -0.2564389 59.68652344 -0.30175781 C65.77491253 -0.34521956 71.86309358 -0.36913817 77.95162582 -0.37950897 C80.27446645 -0.38689966 82.5972957 -0.40133188 84.92004776 -0.42292023 C88.17367406 -0.45195768 91.42644075 -0.45595573 94.68017578 -0.45410156 C96.12055962 -0.47567322 96.12055962 -0.47567322 97.59004211 -0.49768066 C103.24494968 -0.46281108 106.5342269 0.18431435 111 4 C115.47633631 9.08124662 116.14734579 12.08369524 116.13803101 18.70542908 C116.14085229 19.51044265 116.14367357 20.31545622 116.14658034 21.14486414 C116.15495175 23.85822306 116.15626684 26.57154131 116.15771484 29.28491211 C116.16238171 31.22479874 116.16752506 33.16468428 116.17311096 35.10456848 C116.18441071 39.29301285 116.1928363 43.48145003 116.19923019 47.66990471 C116.20991042 54.30808533 116.23016024 60.94621496 116.25234985 67.58436584 C116.31425746 86.46531815 116.36813105 105.34626884 116.40136719 124.22729492 C116.41979008 134.64726808 116.44883043 145.06715706 116.4893719 155.48706824 C116.51033167 160.99575835 116.52588323 166.50434281 116.52817917 172.01307487 C116.53034783 177.21122932 116.54643985 182.40916466 116.57256889 187.60725212 C116.57968258 189.50046576 116.58190215 191.39370619 116.57846642 193.28693008 C116.54047954 218.23129164 119.54737679 243.91631807 137.62109375 262.78515625 C152.26839527 276.42229905 169.72470872 280.59210549 189.3125 280.4375 C189.9935379 280.43379395 190.67457581 280.43008789 191.37625122 280.42626953 C211.03321427 280.27406651 230.30171495 275.72328338 244.8203125 261.546875 C259.97856721 243.83507917 262.46281743 223.68102814 262.36889648 201.35205078 C262.37136914 199.30387674 262.37521225 197.25570398 262.38031006 195.20753479 C262.38859964 190.82443116 262.38788215 186.44145768 262.38012505 182.05835342 C262.36847761 175.12395537 262.3807565 168.18972254 262.39674377 161.25534058 C262.43282006 144.04281585 262.43916472 126.83029595 262.43664551 109.61773682 C262.4349339 96.21550339 262.44204627 82.81340616 262.47662407 69.41121089 C262.49340111 62.52062243 262.49163925 55.63036677 262.47580135 48.73977971 C262.47000258 44.45534304 262.48074675 40.17106415 262.49604797 35.88665581 C262.4997718 33.90333443 262.49667311 31.91998648 262.48617744 29.93668938 C262.47278363 27.22482045 262.48403515 24.51409987 262.50120544 21.80227661 C262.48649528 20.63174293 262.48649528 20.63174293 262.47148794 19.43756211 C262.54385317 13.89320707 263.92155515 9.63940301 267 5 C270.73367906 1.5330123 273.17197856 -0.12628642 278.22671509 -0.12025452 C279.11295059 -0.12162918 279.9991861 -0.12300385 280.91227722 -0.12442017 C282.37423271 -0.11902725 282.37423271 -0.11902725 283.86572266 -0.11352539 C284.89013962 -0.11367142 285.91455658 -0.11381744 286.97001648 -0.1139679 C290.3680531 -0.11326926 293.76603542 -0.10547911 297.1640625 -0.09765625 C299.51532969 -0.0957919 301.86659727 -0.09436808 304.21786499 -0.09336853 C310.41570095 -0.08954471 316.6135136 -0.07971556 322.81134033 -0.06866455 C329.13203618 -0.05844753 335.45273578 -0.05387028 341.7734375 -0.04882812 C354.18230193 -0.03809319 366.59114903 -0.02101838 379 0 C379.0468009 28.2777143 379.08202843 56.55542275 379.10362434 84.83316803 C379.11391994 97.96414996 379.12794737 111.09510777 379.15087891 124.22607422 C379.17086542 135.67617195 379.1837289 147.12625221 379.18817699 158.5763669 C379.19077547 164.63440395 379.19684707 170.69239102 379.21146011 176.75041199 C379.22512726 182.4630801 379.22920432 188.17567807 379.22621536 193.88836098 C379.22676146 195.9747436 379.2306841 198.06112879 379.23841095 200.14749718 C379.39689731 245.18512949 366.19897921 287.55771385 334.25 320.1875 C323.52127507 330.82332915 311.29168861 338.92463579 298 346 C297.01644531 346.53238281 296.03289062 347.06476563 295.01953125 347.61328125 C266.81043149 362.34596898 233.59948763 368.42498318 202 369 C201.07106934 369.02046387 200.14213867 369.04092773 199.18505859 369.06201172 C141.53053373 370.16811565 85.42014244 359.17101614 42 319 C25.257079 302.5146624 12.69253563 280.57903775 5.8125 258.25 C5.57450684 257.48929199 5.33651367 256.72858398 5.09130859 255.94482422 C0.37648301 239.9302765 -0.42797723 224.45656648 -0.34057617 207.86499023 C-0.33972811 205.58664969 -0.34020853 203.30830833 -0.34190369 201.02996826 C-0.34275806 194.89679963 -0.3252233 188.76381004 -0.30418181 182.63068271 C-0.2853213 176.20188242 -0.28365723 169.77307722 -0.28010559 163.34425354 C-0.27186578 152.57069464 -0.25317695 141.7972085 -0.22631836 131.02368164 C-0.19870512 119.93579428 -0.1775073 108.84792466 -0.16479492 97.76000977 C-0.16400675 97.07448009 -0.16321858 96.38895041 -0.16240653 95.6826471 C-0.1584909 92.24292754 -0.1546999 88.80320785 -0.15097082 85.36348808 C-0.11996184 56.90894739 -0.06697704 28.45447721 0 0 Z " fill="#FFFFFF" transform="translate(683,111)"/>
<path d="M0 0 C0.90668025 -0.00199105 1.81336051 -0.0039821 2.74751592 -0.00603348 C3.73972921 -0.00312064 4.73194251 -0.0002078 5.75422287 0.00279331 C6.81119708 0.00193889 7.86817129 0.00108446 8.95717502 0.00020415 C12.51020787 -0.00144716 16.06319385 0.00406505 19.61622238 0.00952244 C22.15865198 0.00980441 24.70108165 0.00964638 27.2435112 0.00907993 C32.72301203 0.00885198 38.20249768 0.01169428 43.68199539 0.01731777 C51.60443727 0.02544311 59.52687338 0.02804906 67.44931898 0.02930576 C80.30280827 0.03149465 93.15629122 0.03815033 106.00977707 0.04760838 C118.49610487 0.0567867 130.98243095 0.06386548 143.46876144 0.06811619 C144.62315239 0.06851027 144.62315239 0.06851027 145.80086437 0.06891232 C149.6616722 0.07021735 153.52248005 0.07148106 157.38328791 0.07272422 C189.41503891 0.08309176 221.44678211 0.10070566 253.47852707 0.12304783 C253.59461946 10.15469414 253.68334288 20.18617939 253.73758793 30.21836185 C253.76362926 34.87726239 253.79892669 39.53570174 253.85572433 44.19433689 C253.91024014 48.69421485 253.93998867 53.19365052 253.95291328 57.69383335 C253.9621182 59.40660148 253.98009344 61.11934668 254.00717735 62.83192539 C254.25161889 78.93590852 254.25161889 78.93590852 250.23870468 84.60974216 C244.98806379 89.12395968 240.89848128 90.62296785 233.99547958 90.62184238 C232.91480039 90.62991922 232.91480039 90.62991922 231.8122893 90.63815922 C229.41544394 90.65135802 227.01963608 90.63632558 224.62281418 90.62133884 C222.89754391 90.62516455 221.17227683 90.63078573 219.44701767 90.63806248 C215.7403609 90.64999295 212.03398749 90.64953942 208.32732582 90.63946819 C202.46515235 90.62388507 196.60326902 90.63760039 190.74111557 90.65550327 C179.35731578 90.68629765 167.97360502 90.68782509 156.58977127 90.685853 C142.09586319 90.68445932 127.6020234 90.69479935 113.1081658 90.73443073 C107.28164803 90.74936289 101.45538777 90.74909563 95.62886608 90.7369529 C92.0044637 90.732242 88.3801599 90.73976148 84.75577354 90.75049686 C83.07638986 90.75290276 81.39698967 90.7501685 79.71762466 90.741889 C77.42301992 90.73125344 75.12917151 90.73902957 72.83459091 90.75123692 C71.55132888 90.75065061 70.26806684 90.7500643 68.94591808 90.74946022 C63.83578888 91.3000416 60.60053612 92.8797405 57.16602707 96.68554783 C46.62425747 111.91254836 53.84159456 133.60660558 53.47852707 152.12304783 C111.55852707 152.12304783 169.63852707 152.12304783 229.47852707 152.12304783 C229.47852707 232.12304783 229.47852707 232.12304783 223.47852707 241.12304783 C216.33926497 246.44965589 208.24654018 245.69991009 199.69923019 245.66894627 C198.10200116 245.67769008 196.50478088 245.68817868 194.9075737 245.70027256 C190.58993315 245.72805437 186.27257953 245.73153898 181.95486259 245.73055267 C177.43578976 245.73368852 172.91684487 245.75932069 168.39783859 245.78253269 C159.84869217 245.82304485 151.29962194 245.84342214 142.75039434 245.85650659 C133.01392923 245.87239285 123.27759347 245.91081533 113.5412035 245.95109987 C93.52035406 246.03343333 73.49951078 246.08756637 53.47852707 246.12304783 C53.48963013 247.40820286 53.50073318 248.69335789 53.5121727 250.01745701 C53.61362161 262.14099029 53.68852781 274.26443722 53.73758793 286.38829899 C53.76365842 292.62102573 53.7990111 298.85340924 53.85572433 305.08593845 C53.91013323 311.10302692 53.93996677 317.11978565 53.95291328 323.13710117 C53.96213708 325.43039737 53.98014916 327.72367593 54.00717735 330.0168314 C54.04358432 333.23427122 54.04846736 336.45035635 54.04615402 339.6679697 C54.0641304 340.6116843 54.08210678 341.5553989 54.1006279 342.52771091 C54.05263226 348.71503382 52.94727768 353.61443687 48.47852707 358.12304783 C42.65548556 362.34507341 38.11567343 362.68343738 31.04517746 362.57714939 C30.02003036 362.5777335 28.99488327 362.5783176 27.93867111 362.57891941 C24.56749127 362.57614409 21.19720773 362.54507711 17.82618332 362.51367283 C15.48206693 362.50620851 13.13794429 362.50051648 10.79381943 362.49652195 C4.63699104 362.48128086 -1.51945733 362.44201161 -7.67613602 362.39770603 C-13.96372208 362.35672077 -20.25136979 362.33850395 -26.53905106 362.31836033 C-38.86669158 362.27551635 -51.1940506 362.20728304 -63.52147293 362.12304783 C-63.59021913 324.92452569 -63.64304232 287.72601317 -63.67466892 250.52744031 C-63.6784208 246.13051706 -63.68230379 241.73359394 -63.68626785 237.33667088 C-63.68705478 236.46136479 -63.68784172 235.5860587 -63.68865249 234.68422819 C-63.70168754 220.53264922 -63.72533085 206.38110702 -63.75293132 192.22954982 C-63.78103853 177.6963902 -63.79766041 163.16324976 -63.80373842 148.63006407 C-63.80784385 139.67057581 -63.82078556 130.71119147 -63.84522233 121.75173522 C-63.86114522 115.59836203 -63.86585854 109.44504214 -63.86197706 103.29164987 C-63.86006565 99.7475291 -63.86288499 96.20358924 -63.87908936 92.65950108 C-63.99539723 65.86506448 -61.54681153 42.79328556 -42.33397293 22.43554783 C-31.50818755 12.21015262 -15.53857988 -0.007543 0 0 Z " fill="#FFFFFF" transform="translate(1207.5214729309082,110.87695217132568)"/>
<path d="M0 0 C540.21 0 1080.42 0 1637 0 C1637 5.28 1637 10.56 1637 16 C1096.79 16 556.58 16 0 16 C0 10.72 0 5.44 0 0 Z " fill="#FFFFFF" transform="translate(182,562)"/>
<path d="M0 0 C85.8 0 171.6 0 260 0 C260 29.67784586 255.66301799 49.30317219 234.84375 70.16015625 C226.36349852 78.13343617 216.22212757 83.87616238 205 87 C204.41215225 87.16735657 203.8243045 87.33471313 203.21864319 87.50714111 C194.91297502 89.51911274 186.53168439 89.29613674 178.04100227 89.30496025 C175.16582656 89.30866702 172.2909828 89.32551361 169.4158783 89.34571838 C161.24696091 89.40069342 153.0779947 89.43161104 144.90893555 89.45629883 C139.89166491 89.47236537 134.8746286 89.50278286 129.857481 89.54106331 C127.96689825 89.55255196 126.07627325 89.55864221 124.18565559 89.55874443 C99.83916298 89.560537 78.58909661 93.49459119 57 105 C52.86066015 107.06966993 48.47628857 106.73546585 44 106 C40.8910557 104.57300165 38.00397225 102.99346281 35.05102539 101.28100586 C30.10630612 98.46210015 25.15373393 96.40595053 19.75 94.625 C19.04222412 94.38700684 18.33444824 94.14901367 17.60522461 93.90380859 C6.7753732 90.44553671 -3.8648525 89.64633654 -15.1875 89.375 C-16.53452721 89.3367036 -17.88153299 89.2976457 -19.22851562 89.2578125 C-22.48554682 89.16442092 -25.74258509 89.078646 -29 89 C-27.35698064 80.43146299 -24.54497064 72.30531734 -21.75 64.0625 C-21.22502915 62.50357798 -20.70054439 60.9444922 -20.17651367 59.38525391 C-19.34370258 56.90772392 -18.51044752 54.43034995 -17.67546082 51.95355225 C-15.47632722 45.42905921 -13.29868715 38.89758928 -11.12890625 32.36328125 C-10.80967194 31.40247147 -10.49043762 30.44166168 -10.16152954 29.45173645 C-8.89859546 25.65058086 -7.63572111 21.84940668 -6.37463379 18.04763794 C-5.49725908 15.40368346 -4.61798743 12.76036699 -3.73828125 10.1171875 C-3.34377525 8.92595024 -3.34377525 8.92595024 -2.94129944 7.71064758 C-1.11393541 2.22787082 -1.11393541 2.22787082 0 0 Z " fill="#FFFFFF" transform="translate(301,384)"/>
<path d="M0 0 C70.62 0 141.24 0 214 0 C214 29.37 214 58.74 214 89 C133.81 89 53.62 89 -29 89 C-26.74984331 78.87429488 -26.74984331 78.87429488 -25.47875977 75.07983398 C-25.1940834 74.2228038 -24.90940704 73.36577362 -24.61610413 72.48277283 C-24.31095383 71.57966873 -24.00580353 70.67656464 -23.69140625 69.74609375 C-23.36518784 68.76931168 -23.03896942 67.7925296 -22.7028656 66.78614807 C-21.66029056 63.66850255 -20.61136787 60.55303322 -19.5625 57.4375 C-18.89349568 55.43697751 -18.22487349 53.43632719 -17.55664062 51.43554688 C-11.80093027 34.25603843 -5.89019397 17.13510972 0 0 Z " fill="#FFFFFF" transform="translate(347,247)"/>
<path d="M0 0 C46.11114926 -0.20151517 46.11114926 -0.20151517 65.41992188 -0.24414062 C78.75717775 -0.27381978 92.0942758 -0.30872802 105.43139648 -0.37719727 C115.14436013 -0.42703727 124.85719586 -0.45929226 134.57028383 -0.47044247 C139.7132316 -0.47696017 144.85581341 -0.49227531 149.99864388 -0.52865028 C154.84055846 -0.56261904 159.68195676 -0.57305112 164.52397919 -0.56553841 C166.29971816 -0.56691255 168.07547462 -0.57683986 169.85111046 -0.59602737 C172.27967172 -0.6209804 174.70629497 -0.61489853 177.13490295 -0.60127258 C177.8343385 -0.61583679 178.53377404 -0.630401 179.2544046 -0.64540654 C184.7460617 -0.56236639 188.06931032 1.39895491 192 5 C196.06885963 10.38139499 195.66636106 16.54716368 195 23 C193.68827326 28.83017422 191.56234441 34.44154456 189.5625 40.0625 C189.01403137 41.64633745 188.46742058 43.23081938 187.92260742 44.81591797 C186.82285797 48.01014127 185.71454858 51.20118537 184.59960938 54.39013672 C182.2579414 61.10882799 180.03962831 67.86763233 177.8125 74.625 C177.09173631 76.80531405 176.36926845 78.98506602 175.64453125 81.1640625 C175.34909424 82.05561035 175.05365723 82.9471582 174.74926758 83.86572266 C174 86 174 86 173 88 C115.91 88 58.82 88 0 88 C0 58.96 0 29.92 0 0 Z " fill="#FFFFFF" transform="translate(141,111)"/>
<path d="M0 0 C1.41047127 0.00113092 2.82094488 0.00048986 4.23141479 -0.00177002 C8.02630816 -0.0029086 11.8206865 0.02046002 15.61546111 0.04852581 C19.59389939 0.0736839 23.57235199 0.07589274 27.55085754 0.08062744 C35.06941383 0.09301519 42.58773496 0.12577929 50.10618812 0.1660254 C60.27665449 0.21927543 70.44718604 0.24072257 80.61775684 0.26403427 C96.62010291 0.30154426 112.62195297 0.3812626 128.62426758 0.45410156 C128.62426758 29.49410156 128.62426758 58.53410156 128.62426758 88.45410156 C63.28426758 88.78410156 -2.05573242 89.11410156 -69.37573242 89.45410156 C-67.59877305 82.93858388 -65.85199868 76.59755658 -63.63354492 70.25097656 C-63.38329559 69.52525452 -63.13304626 68.79953247 -62.87521362 68.05181885 C-62.08704237 65.76808107 -61.29412893 63.48602862 -60.50073242 61.20410156 C-59.7185066 58.94493227 -58.93731456 56.68540946 -58.1567688 54.42565918 C-57.64329114 52.94000498 -57.12871214 51.45473095 -56.61300659 49.96984863 C-55.37451484 46.39464277 -54.15958011 42.8146405 -52.99731445 39.21386719 C-52.77856659 38.54002991 -52.55981873 37.86619263 -52.33444214 37.17193604 C-51.74553708 35.34876143 -51.16434278 33.52310118 -50.58374023 31.69726562 C-45.98662607 19.35529622 -37.13586762 10.1361358 -25.37573242 4.45410156 C-16.82846767 0.55559454 -9.32130062 -0.10330595 0 0 Z " fill="#FFFFFF" transform="translate(432.375732421875,110.5458984375)"/>
<path d="M0 0 C51.48 0 102.96 0 156 0 C154.71672775 5.77472513 153.46874731 10.9572617 151.6015625 16.48828125 C151.37044266 17.17744125 151.13932281 17.86660126 150.90119934 18.5766449 C150.14670373 20.82338152 149.3858996 23.06792504 148.625 25.3125 C148.0933675 26.89144545 147.56220713 28.47054994 147.03149414 30.04980469 C146.20432057 32.51059855 145.37666516 34.97122295 144.54719543 37.4312439 C142.56426254 43.31238045 140.59922437 49.19926507 138.64453125 55.08984375 C138.37384827 55.90499954 138.10316528 56.72015533 137.82427979 57.56001282 C136.77232869 60.72806627 135.72042931 63.89613524 134.67047119 67.06484985 C133.94712417 69.24684146 133.22181475 71.42817201 132.49609375 73.609375 C132.08544678 74.84655273 131.6747998 76.08373047 131.25170898 77.35839844 C129.90881594 81.26528212 128.45057342 85.13180422 127 89 C85.09 89 43.18 89 0 89 C0 59.63 0 30.26 0 0 Z " fill="#FFFFFF" transform="translate(141,247)"/>
<path d="M0 0 C36.3 0 72.6 0 110 0 C108.87501063 7.87492561 108.87501063 7.87492561 107.6081543 11.55371094 C107.32622726 12.3823616 107.04430023 13.21101227 106.75382996 14.06477356 C106.44705826 14.94574203 106.14028656 15.82671051 105.82421875 16.734375 C105.50258255 17.67411667 105.18094635 18.61385834 104.8495636 19.58207703 C103.80138932 22.64009526 102.74452087 25.69502966 101.6875 28.75 C100.96361532 30.8566539 100.24031226 32.96350774 99.51757812 35.07055664 C98.05587892 39.32894596 96.59077081 43.58613707 95.12255859 47.84228516 C93.16388948 53.52115049 91.21454166 59.20316265 89.26953125 64.88671875 C86.5178579 72.92614551 83.76116652 80.96382845 81 89 C78.12230548 89.03220035 75.24497589 89.05568743 72.3671875 89.07421875 C71.15325317 89.08914368 71.15325317 89.08914368 69.91479492 89.10437012 C63.50575139 89.13529237 58.02013039 88.27813445 52 86 C50.54207031 85.47212891 50.54207031 85.47212891 49.0546875 84.93359375 C28.04282524 76.79216886 14.33373666 62.03783189 4.2890625 42.2421875 C-1.81284127 26.894975 0 18.37913551 0 0 Z " fill="#FFFFFF" transform="translate(141,384)"/>
<path d="M0 0 C22.11 0 44.22 0 67 0 C67 3.63 67 7.26 67 11 C49.18 11 31.36 11 13 11 C13 18.92 13 26.84 13 35 C15.31515625 34.96519531 17.6303125 34.93039062 20.015625 34.89453125 C22.29946667 34.87102387 24.58329401 34.85287133 26.8671875 34.83520508 C28.43430783 34.82027248 30.00138754 34.79991885 31.56835938 34.77368164 C56.06697585 34.37424768 56.06697585 34.37424768 65 42 C71.25820142 48.3458513 72.4619105 54.19134824 72.42944336 62.83154297 C72.24758984 69.08587764 71.02772774 74.04787573 67 79 C58.37334332 87.10802001 47.00455401 88.47486279 35.64453125 88.29296875 C34.27524475 88.28843689 34.27524475 88.28843689 32.8782959 88.28381348 C29.5229128 88.26831614 26.16769299 88.22643508 22.8125 88.1875 C15.284375 88.125625 7.75625 88.06375 0 88 C0 58.96 0 29.92 0 0 Z M13 46 C13 56.23 13 66.46 13 77 C17.41141001 77.06924888 21.82089937 77.12886267 26.23242188 77.16479492 C27.72988307 77.17978888 29.22730105 77.20019105 30.72460938 77.22631836 C43.47050313 77.92662509 43.47050313 77.92662509 54.53686523 72.58276367 C57.63339384 69.0835838 58.89933403 66.33382411 59.25 61.6875 C58.89867046 56.50538932 57.42117815 53.46178324 53.8125 49.75 C45.81847738 44.77594148 36.57402846 45.764365 27.5 45.875 C22.715 45.91625 17.93 45.9575 13 46 Z " fill="#FCFDFE" transform="translate(243,648)"/>
<path d="M0 0 C0.495 5.445 0.495 5.445 1 11 C0.11328613 11.19110352 -0.77342773 11.38220703 -1.68701172 11.57910156 C-5.02469486 12.30281055 -8.36047027 13.03435112 -11.6953125 13.77099609 C-13.12986067 14.08624962 -14.56507124 14.39850637 -16.00097656 14.70751953 C-34.45660473 18.22290894 -34.45660473 18.22290894 -48.28125 29.953125 C-50.38307978 33.8865493 -51.55244932 37.52449322 -52 42 C-51.52691406 41.52949219 -51.05382813 41.05898438 -50.56640625 40.57421875 C-42.24291573 32.73748206 -35.01774742 31.38357406 -23.65625 31.65625 C-13.21816928 32.63760802 -6.36055691 37.93232576 0.3125 45.6875 C5.5422947 55.9533933 6.24522484 67.14039901 3 78.1875 C-0.1986767 85.53665476 -6.64894769 92.24523951 -14.05078125 95.328125 C-24.9182999 99.07404325 -36.23348554 99.52646254 -47 95 C-56.35754628 89.68656678 -61.2419168 81.33583544 -64.45703125 71.30078125 C-68.27703687 55.11385095 -67.34262141 35.82543042 -58.72265625 21.40234375 C-50.38554747 9.77576347 -37.5289928 6.25368793 -24.1875 3.25 C-22.87799038 2.94514577 -21.56874318 2.639162 -20.25976562 2.33203125 C-16.84329217 1.53750254 -13.4254465 0.75485632 -10 0 C-9.14446533 -0.2155957 -8.28893066 -0.43119141 -7.4074707 -0.65332031 C-5 -1 -5 -1 0 0 Z M-46.875 50.9375 C-51.37095946 57.41697098 -51.79438908 63.26727594 -51 71 C-49.26593336 77.24056319 -45.31928656 81.46156868 -40 85 C-34.14238294 87.7418633 -28.06862185 87.83815065 -21.9375 86 C-16.35511159 83.68776811 -12.44426794 78.95112083 -9.828125 73.60546875 C-7.89071345 67.50993334 -7.95269474 60.41930236 -10.625 54.5625 C-13.49592127 49.66564493 -17.72536237 46.13230032 -23 44 C-32.401384 42.93053039 -40.36471789 43.65576827 -46.875 50.9375 Z " fill="#FDFDFE" transform="translate(1088,789)"/>
<path d="M0 0 C2.05716235 1.70406732 3.89613814 3.47055934 5.71875 5.421875 C6.21246094 5.94523438 6.70617188 6.46859375 7.21484375 7.0078125 C12.61412384 13.57666959 14.30869146 22.93907695 13.93359375 31.28125 C12.97326792 40.84958741 9.6154442 49.08945751 2.46875 55.796875 C-5.394589 61.85748344 -14.48755446 63.71651085 -24.28125 63.421875 C-31.95799742 62.3025557 -35.74361953 60.09161105 -42.28125 55.421875 C-42.61125 65.651875 -42.94125 75.881875 -43.28125 86.421875 C-47.57125 86.421875 -51.86125 86.421875 -56.28125 86.421875 C-56.28125 56.391875 -56.28125 26.361875 -56.28125 -4.578125 C-51.99125 -4.578125 -47.70125 -4.578125 -43.28125 -4.578125 C-42.95125 -2.268125 -42.62125 0.041875 -42.28125 2.421875 C-41.78496094 2.01195312 -41.28867188 1.60203125 -40.77734375 1.1796875 C-29.06781164 -8.10794898 -12.4744933 -8.62961523 0 0 Z M-36.28125 11.421875 C-42.22467857 17.63545941 -43.83275866 23.09305124 -43.66015625 31.5390625 C-42.849032 37.71029651 -39.97582852 43.24200467 -35.34375 47.421875 C-29.24348105 51.40572411 -23.45284087 52.29889617 -16.28125 51.421875 C-10.01639855 49.57341176 -5.93240821 45.72388693 -2.28125 40.421875 C1.0504838 34.23436937 1.31129294 27.35081448 -0.43359375 20.66015625 C-2.55252799 15.06499809 -5.93801601 10.83494597 -11.21875 7.984375 C-20.45015384 4.04307355 -28.48580591 5.18551973 -36.28125 11.421875 Z " fill="#FCFDFE" transform="translate(1287.28125,673.578125)"/>
<path d="M0 0 C7.7554298 5.57098374 12.42387945 12.25073275 14.59375 21.55859375 C15.61948874 33.151827 14.95951382 43.62975156 7.28125 52.93359375 C6.08158535 54.17122247 4.85337728 55.38204827 3.59375 56.55859375 C3.07039062 57.05230469 2.54703125 57.54601562 2.0078125 58.0546875 C-4.74279404 63.60335678 -13.5222474 64.89975659 -22.03125 64.55859375 C-28.94345575 63.81829735 -35.41898976 61.54585399 -40.40625 56.55859375 C-40.73625 66.78859375 -41.06625 77.01859375 -41.40625 87.55859375 C-45.69625 87.55859375 -49.98625 87.55859375 -54.40625 87.55859375 C-54.40625 57.52859375 -54.40625 27.49859375 -54.40625 -3.44140625 C-50.44625 -3.44140625 -46.48625 -3.44140625 -42.40625 -3.44140625 C-42.07625 -1.13140625 -41.74625 1.17859375 -41.40625 3.55859375 C-40.83777344 3.14867187 -40.26929688 2.73875 -39.68359375 2.31640625 C-27.86270154 -5.93256361 -12.77470526 -7.65238026 0 0 Z M-35.6796875 12.796875 C-40.2238648 17.4335808 -41.99041788 22.93728983 -42.44140625 29.328125 C-42.33167217 36.29014272 -39.98345033 42.00110251 -34.98828125 46.96875 C-29.58000549 51.73748672 -25.10905339 53.05286527 -18.03125 52.86328125 C-12.71762053 52.24652069 -8.38397744 50.54902608 -4.58203125 46.72265625 C0.24776204 40.61817175 2.10096278 34.9179467 1.90234375 27.1484375 C1.05463649 20.03413482 -2.09735019 15.15955701 -7.625 10.75 C-16.94017294 4.5194567 -27.23206061 5.84693495 -35.6796875 12.796875 Z " fill="#FDFDFE" transform="translate(838.40625,672.44140625)"/>
<path d="M0 0 C6.414375 -0.061875 12.82875 -0.12375 19.4375 -0.1875 C21.44384521 -0.21481201 23.45019043 -0.24212402 25.51733398 -0.27026367 C27.13524781 -0.27903821 28.75316835 -0.28667985 30.37109375 -0.29296875 C31.59753601 -0.3159906 31.59753601 -0.3159906 32.84875488 -0.33947754 C39.90015776 -0.34262971 46.23422099 0.83547729 51.875 5.25 C55.36626584 9.76810874 57.32703097 13.73910333 57.0625 19.5 C56.31793346 24.43275335 53.81694925 27.85126998 50 31 C49.34 31 48.68 31 48 31 C48 31.66 48 32.32 48 33 C48.556875 33.061875 49.11375 33.12375 49.6875 33.1875 C53.76553146 34.62032187 56.21604151 37.6187398 58.3125 41.3125 C60.00345856 47.92261073 59.35784723 53.06780323 56 59 C50.60657961 64.65024993 44.00997463 67.07708978 36.21459961 67.34057617 C34.52710653 67.33984024 32.83955486 67.32382496 31.15234375 67.29296875 C30.35542114 67.28994751 29.55849854 67.28692627 28.73742676 67.28381348 C25.80398318 67.26829853 22.87072645 67.22641682 19.9375 67.1875 C13.358125 67.125625 6.77875 67.06375 0 67 C0 44.89 0 22.78 0 0 Z M13 10 C13 15.94 13 21.88 13 28 C16.70877584 28.08114826 20.41576511 28.14057594 24.125 28.1875 C25.69507813 28.22520508 25.69507813 28.22520508 27.296875 28.26367188 C35.07587228 28.34222539 35.07587228 28.34222539 42 25 C43.72229954 21.69892589 44.22114947 19.95094271 43.375 16.3125 C41.21661574 12.68249011 38.96267956 11.32089319 35 10 C33.29983156 9.91821886 31.59663703 9.89250499 29.89453125 9.90234375 C28.42016602 9.90717773 28.42016602 9.90717773 26.91601562 9.91210938 C25.37977539 9.92467773 25.37977539 9.92467773 23.8125 9.9375 C22.77673828 9.94201172 21.74097656 9.94652344 20.67382812 9.95117188 C18.1158608 9.96295974 15.55792314 9.98089518 13 10 Z M13 38 C13 44.27 13 50.54 13 57 C16.6879481 57.08128539 20.3740864 57.14064175 24.0625 57.1875 C25.10083984 57.21263672 26.13917969 57.23777344 27.20898438 57.26367188 C34.16247077 57.32989555 39.56188624 57.00834954 45 52.25 C46.52024944 48.82943875 45.95401173 46.5616438 45 43 C42.59038166 39.84256907 40.83799846 38.70070113 37 38 C35.12122376 37.91973255 33.2398385 37.89234128 31.359375 37.90234375 C29.75449219 37.90717773 29.75449219 37.90717773 28.1171875 37.91210938 C27.00601563 37.92048828 25.89484375 37.92886719 24.75 37.9375 C23.62335937 37.94201172 22.49671875 37.94652344 21.3359375 37.95117188 C18.55726894 37.96294589 15.77862773 37.980881 13 38 Z " fill="#FCFDFE" transform="translate(707,669)"/>
<path d="M0 0 C3 2.5 3 2.5 5 5 C5.556875 5.61875 6.11375 6.2375 6.6875 6.875 C10.58692323 13.1883519 10.26835015 20.01033422 10.1953125 27.18359375 C10.1924826 28.23909927 10.18965271 29.2946048 10.18673706 30.38209534 C10.17559415 33.73401504 10.15050024 37.08566184 10.125 40.4375 C10.1149626 42.71809508 10.10583808 44.99869438 10.09765625 47.27929688 C10.07567407 52.85296881 10.04118473 58.42643822 10 64 C6.04 64 2.08 64 -2 64 C-2.33 62.02 -2.66 60.04 -3 58 C-3.5775 58.598125 -4.155 59.19625 -4.75 59.8125 C-12.27742948 64.87903907 -21.02790185 65.63084799 -29.8828125 64.6328125 C-36.2420113 63.34184733 -41.85374269 60.88459214 -46.0625 55.8125 C-49.41109247 50.36213141 -49.3987753 44.39265183 -48.375 38.25 C-46.34403783 33.44954397 -44.44304913 30.27329562 -39.81103516 27.85913086 C-31.89248697 24.73614402 -24.75296555 24.5224706 -16.3125 24.75 C-15.02666016 24.76804687 -13.74082031 24.78609375 -12.41601562 24.8046875 C-9.27653995 24.85137115 -6.13868509 24.91683908 -3 25 C-3.28482368 23.58194169 -3.57818144 22.16559621 -3.875 20.75 C-4.11863281 19.56664062 -4.11863281 19.56664062 -4.3671875 18.359375 C-5.38007657 14.5829244 -6.2154976 12.52953912 -9.5 10.3125 C-16.99064238 7.50350911 -24.43857242 7.30149796 -32 10 C-33.29052436 10.6937206 -34.56322415 11.42198629 -35.8125 12.1875 C-39 14 -39 14 -41.1875 14.1875 C-44.2745653 12.16493997 -45.38729346 9.28300975 -47 6 C-47 5.34 -47 4.68 -47 4 C-32.29208015 -3.79519752 -15.63835249 -8.55265649 0 0 Z M-35.125 39.25 C-36.31081572 42.9768494 -36.09084198 45.25023069 -35 49 C-29.68199554 54.18164537 -25.55230746 54.40344326 -18.33984375 54.34765625 C-13.51606483 53.8455319 -10.58289258 52.16914332 -7 49 C-6.175 48.278125 -5.35 47.55625 -4.5 46.8125 C-2.84930346 43.71744398 -2.83935971 42.26628166 -2.90625 38.82421875 C-2.91978516 37.92147217 -2.93332031 37.01872559 -2.94726562 36.08862305 C-2.97336914 35.05475464 -2.97336914 35.05475464 -3 34 C-6.31232698 33.91165316 -9.62434435 33.85916416 -12.9375 33.8125 C-14.32678711 33.77479492 -14.32678711 33.77479492 -15.74414062 33.73632812 C-22.66322797 33.66349563 -30.12237545 33.95310342 -35.125 39.25 Z " fill="#FDFEFE" transform="translate(1421,672)"/>
<path d="M0 0 C3 2.5 3 2.5 5 5 C5.556875 5.61875 6.11375 6.2375 6.6875 6.875 C10.58692323 13.1883519 10.26835015 20.01033422 10.1953125 27.18359375 C10.1924826 28.23909927 10.18965271 29.2946048 10.18673706 30.38209534 C10.17559415 33.73401504 10.15050024 37.08566184 10.125 40.4375 C10.1149626 42.71809508 10.10583808 44.99869438 10.09765625 47.27929688 C10.07567407 52.85296881 10.04118473 58.42643822 10 64 C6.04 64 2.08 64 -2 64 C-2.33 62.02 -2.66 60.04 -3 58 C-3.5775 58.598125 -4.155 59.19625 -4.75 59.8125 C-12.28076343 64.88128308 -21.02058523 65.61897498 -29.87890625 64.640625 C-35.95420003 63.39363103 -40.79538973 60.87391873 -45.5 56.875 C-48.59435255 50.94415761 -49.85074042 44.62566917 -47.9375 38.125 C-45.37610537 31.83385529 -41.16359731 28.62280736 -35 26 C-31.47521537 24.86495734 -28.17307987 24.88557691 -24.484375 24.90234375 C-23.23398438 24.90556641 -21.98359375 24.90878906 -20.6953125 24.91210938 C-18.74238281 24.92467773 -18.74238281 24.92467773 -16.75 24.9375 C-14.77386719 24.94426758 -14.77386719 24.94426758 -12.7578125 24.95117188 C-9.50516259 24.96295684 -6.25260416 24.97940989 -3 25 C-3.27981098 23.39419377 -3.57108983 21.79038303 -3.8671875 20.1875 C-4.10864502 18.84751953 -4.10864502 18.84751953 -4.35498047 17.48046875 C-5.32432784 13.75277409 -6.86656467 12.1797811 -10 10 C-17.12789983 7.29631386 -24.71899169 7.12067938 -31.78515625 10.22265625 C-33.48224583 11.11993925 -35.15983818 12.05578488 -36.80859375 13.0390625 C-39 14 -39 14 -41.14453125 13.86328125 C-44.5512506 12.27826025 -45.38676267 9.28409029 -47 6 C-47 5.34 -47 4.68 -47 4 C-32.29208015 -3.79519752 -15.63835249 -8.55265649 0 0 Z M-33 37 C-35.39303615 39.61878759 -35.39303615 39.61878759 -36 43 C-35.48625049 47.25678165 -34.63956185 49.32586724 -31.6875 52.4375 C-26.70480046 55.29178714 -20.50580561 54.56253442 -15 54 C-9.66173178 52.34998982 -5.70802169 48.87987139 -3 44 C-2.68456689 41.41477085 -2.68456689 41.41477085 -2.8359375 38.75390625 C-2.85962402 37.86131104 -2.88331055 36.96871582 -2.90771484 36.04907227 C-2.93816895 35.37287842 -2.96862305 34.69668457 -3 34 C-6.31232698 33.91165316 -9.62434435 33.85916416 -12.9375 33.8125 C-14.32678711 33.77479492 -14.32678711 33.77479492 -15.74414062 33.73632812 C-21.86181266 33.67193158 -27.47293718 34.1702582 -33 37 Z " fill="#FCFCFD" transform="translate(1151,822)"/>
<path d="M0 0 C4.99965115 5.30266031 7.19466593 10.90711857 7.17602539 18.13964844 C7.17594986 19.12036316 7.17587433 20.10107788 7.17579651 21.11151123 C7.17063522 22.16268127 7.16547394 23.21385132 7.16015625 24.296875 C7.1587413 25.37882141 7.15732635 26.46076782 7.15586853 27.57550049 C7.15027318 31.0295285 7.1377215 34.48349159 7.125 37.9375 C7.1199844 40.27994698 7.1154216 42.62239498 7.11132812 44.96484375 C7.10030527 50.70575417 7.08304379 56.44661608 7.0625 62.1875 C3.1025 62.1875 -0.8575 62.1875 -4.9375 62.1875 C-5.2675 60.2075 -5.5975 58.2275 -5.9375 56.1875 C-6.88625 56.97125 -7.835 57.755 -8.8125 58.5625 C-16.01743255 63.63477251 -24.22492616 63.66592747 -32.75 62.78125 C-39.31120511 61.55906473 -44.95807569 59.11038463 -49.0625 53.6875 C-51.98614025 48.17434981 -51.85841086 42.23380817 -50.9375 36.1875 C-49.20097246 31.14519756 -46.57086562 28.22520393 -41.875 25.75 C-36.97861683 23.58783476 -32.78410894 23.06546996 -27.421875 23.08984375 C-26.17148437 23.09306641 -24.92109375 23.09628906 -23.6328125 23.09960938 C-21.67988281 23.11217773 -21.67988281 23.11217773 -19.6875 23.125 C-17.71136719 23.13176758 -17.71136719 23.13176758 -15.6953125 23.13867188 C-12.44266259 23.15045684 -9.19010416 23.16690989 -5.9375 23.1875 C-6.21562648 21.581635 -6.50569559 19.97783536 -6.80078125 18.375 C-7.04115112 17.03501953 -7.04115112 17.03501953 -7.28637695 15.66796875 C-8.25453437 11.97975001 -9.86329575 10.3736008 -12.9375 8.1875 C-19.66729494 5.22639023 -26.85370751 5.82623584 -33.7265625 8.1171875 C-35.41207868 8.7983548 -37.08708902 9.50659096 -38.74609375 10.25 C-40.80256068 11.12977195 -42.75677746 11.71062218 -44.9375 12.1875 C-45.77628455 10.89936658 -46.60836783 9.60686744 -47.4375 8.3125 C-47.9015625 7.59320312 -48.365625 6.87390625 -48.84375 6.1328125 C-49.9375 4.1875 -49.9375 4.1875 -49.9375 2.1875 C-33.62227421 -6.45956967 -16.62211961 -10.25620146 0 0 Z M-36.375 35.8125 C-38.22061424 38.61783364 -38.56078744 40.87184347 -38.3984375 44.21875 C-37.61246482 47.57578586 -35.59098344 49.15110573 -32.9375 51.1875 C-27.08969658 53.13676781 -20.41538508 52.96757493 -14.5625 51.125 C-11.00159944 48.49671625 -8.10587102 46.09413395 -5.9375 42.1875 C-5.62206689 39.60227085 -5.62206689 39.60227085 -5.7734375 36.94140625 C-5.79712402 36.04881104 -5.82081055 35.15621582 -5.84521484 34.23657227 C-5.87566895 33.56037842 -5.90612305 32.88418457 -5.9375 32.1875 C-9.29159194 32.12890143 -12.64555017 32.09370418 -16 32.0625 C-17.41442383 32.03736328 -17.41442383 32.03736328 -18.85742188 32.01171875 C-25.29205005 31.96687814 -30.86567417 32.13961611 -36.375 35.8125 Z " fill="#FBFCFD" transform="translate(917.9375,823.8125)"/>
<path d="M0 0 C4.59893644 5.01702157 7.19347479 11.30080722 7.17602539 18.08862305 C7.17594986 19.0694133 7.17587433 20.05020355 7.17579651 21.06071472 C7.17063522 22.11704605 7.16547394 23.17337738 7.16015625 24.26171875 C7.1587413 25.34508011 7.15732635 26.42844147 7.15586853 27.54463196 C7.15026559 31.00894925 7.13771258 34.4732022 7.125 37.9375 C7.11998538 40.28450428 7.11542241 42.63150956 7.11132812 44.97851562 C7.1002952 50.73570192 7.08302858 56.49284005 7.0625 62.25 C3.1025 62.25 -0.8575 62.25 -4.9375 62.25 C-5.2675 60.27 -5.5975 58.29 -5.9375 56.25 C-6.515 56.848125 -7.0925 57.44625 -7.6875 58.0625 C-15.21826343 63.13128308 -23.95808523 63.86897498 -32.81640625 62.890625 C-39.04691071 61.61177302 -44.05403373 59.17940447 -48.5 54.625 C-51.9355644 48.94885013 -51.48851175 42.68364426 -50.9375 36.25 C-49.68865251 32.10382632 -47.47485877 29.69182832 -44.125 26.9375 C-36.02595974 22.6497728 -28.51749081 23.00664828 -19.5 23.125 C-18.19611328 23.13402344 -16.89222656 23.14304687 -15.54882812 23.15234375 C-12.34486168 23.17581603 -9.14127736 23.20865273 -5.9375 23.25 C-6.21562648 21.644135 -6.50569559 20.04033536 -6.80078125 18.4375 C-7.04115112 17.09751953 -7.04115112 17.09751953 -7.28637695 15.73046875 C-8.25453437 12.04225001 -9.86329575 10.4361008 -12.9375 8.25 C-19.66729494 5.28889023 -26.85370751 5.88873584 -33.7265625 8.1796875 C-35.41207868 8.8608548 -37.08708902 9.56909096 -38.74609375 10.3125 C-40.80256068 11.19227195 -42.75677746 11.77312218 -44.9375 12.25 C-45.77628455 10.96186658 -46.60836783 9.66936744 -47.4375 8.375 C-47.9015625 7.65570312 -48.365625 6.93640625 -48.84375 6.1953125 C-49.9375 4.25 -49.9375 4.25 -49.9375 2.25 C-33.47816941 -6.47344521 -16.81576854 -10.01790466 0 0 Z M-35.9375 35.25 C-38.33053615 37.86878759 -38.33053615 37.86878759 -38.9375 41.25 C-38.42375049 45.50678165 -37.57706185 47.57586724 -34.625 50.6875 C-29.64230046 53.54178714 -23.44330561 52.81253442 -17.9375 52.25 C-12.59923178 50.59998982 -8.64552169 47.12987139 -5.9375 42.25 C-5.62206689 39.66477085 -5.62206689 39.66477085 -5.7734375 37.00390625 C-5.79712402 36.11131104 -5.82081055 35.21871582 -5.84521484 34.29907227 C-5.87566895 33.62287842 -5.90612305 32.94668457 -5.9375 32.25 C-9.24982698 32.16165316 -12.56184435 32.10916416 -15.875 32.0625 C-17.26428711 32.02479492 -17.26428711 32.02479492 -18.68164062 31.98632812 C-24.79931266 31.92193158 -30.41043718 32.4202582 -35.9375 35.25 Z " fill="#FDFEFE" transform="translate(678.9375,673.75)"/>
<path d="M0 0 C5.08313788 5.03150613 7.31054201 10.87690282 7.57910156 17.98657227 C7.57847688 20.05495839 7.55639305 22.12342184 7.515625 24.19140625 C7.50996521 25.28847397 7.50430542 26.38554169 7.49847412 27.51585388 C7.47623774 30.99019606 7.42606382 34.46347407 7.375 37.9375 C7.3549186 40.30532356 7.33667072 42.67316342 7.3203125 45.04101562 C7.27641448 50.81941505 7.20747449 56.59702764 7.125 62.375 C3.165 62.375 -0.795 62.375 -4.875 62.375 C-5.205 60.395 -5.535 58.415 -5.875 56.375 C-6.596875 56.99375 -7.31875 57.6125 -8.0625 58.25 C-15.10100005 63.56797782 -23.99629313 63.91020019 -32.578125 63.12890625 C-40.34777779 61.63575869 -45.24067128 57.59824142 -49.875 51.375 C-51.74295333 45.77114002 -51.61035867 39.66758879 -49.8125 34.0625 C-46.2164849 29.07447905 -42.2955366 25.31961441 -36.20751953 23.73242188 C-30.67307104 22.88435483 -25.02019721 23.17672886 -19.4375 23.25 C-18.13361328 23.25902344 -16.82972656 23.26804687 -15.48632812 23.27734375 C-12.28236168 23.30081603 -9.07877736 23.33365273 -5.875 23.375 C-6.15312648 21.769135 -6.44319559 20.16533536 -6.73828125 18.5625 C-6.97865112 17.22251953 -6.97865112 17.22251953 -7.22387695 15.85546875 C-8.19203437 12.16725001 -9.80079575 10.5611008 -12.875 8.375 C-19.60479494 5.41389023 -26.79120751 6.01373584 -33.6640625 8.3046875 C-35.34957868 8.9858548 -37.02458902 9.69409096 -38.68359375 10.4375 C-40.74006068 11.31727195 -42.69427746 11.89812218 -44.875 12.375 C-48.90445885 6.02554969 -48.90445885 6.02554969 -48.78125 3.3046875 C-46.50689039 -1.53812995 -38.96703868 -3.22960668 -34.25 -4.9375 C-23.13188707 -7.28767021 -9.31586427 -7.0604445 0 0 Z M-36.375 36 C-38.14705148 38.80574817 -38.4964633 41.09694887 -38.3359375 44.40625 C-37.54996482 47.76328586 -35.52848344 49.33860573 -32.875 51.375 C-26.68944008 53.43685331 -19.33760471 53.47229467 -13.375 50.6875 C-10.02359664 48.6626938 -7.69310978 46.93546499 -5.875 43.375 C-5.56208524 39.68260582 -5.64202708 36.07020934 -5.875 32.375 C-9.04158663 32.31619196 -12.20802993 32.28113594 -15.375 32.25 C-16.261875 32.23324219 -17.14875 32.21648438 -18.0625 32.19921875 C-24.55292095 32.15149507 -30.77372317 32.35917006 -36.375 36 Z " fill="#FDFEFE" transform="translate(524.875,673.625)"/>
<path d="M0 0 C4.52703644 3.80682609 7.56177518 8.49016993 8.75 14.3125 C8.83469708 15.96147611 8.86778092 17.61350408 8.86352539 19.26464844 C8.86344986 20.24536316 8.86337433 21.22607788 8.86329651 22.23651123 C8.85813522 23.28768127 8.85297394 24.33885132 8.84765625 25.421875 C8.8462413 26.50382141 8.84482635 27.58576782 8.84336853 28.70050049 C8.83777318 32.1545285 8.8252215 35.60849159 8.8125 39.0625 C8.8074844 41.40494698 8.8029216 43.74739498 8.79882812 46.08984375 C8.78780527 51.83075417 8.77054379 57.57161608 8.75 63.3125 C4.79 63.3125 0.83 63.3125 -3.25 63.3125 C-3.58 61.3325 -3.91 59.3525 -4.25 57.3125 C-5.19875 58.09625 -6.1475 58.88 -7.125 59.6875 C-14.4104059 64.81642575 -22.58936646 64.72228175 -31.1953125 63.8515625 C-38.03519369 62.64452464 -42.74616686 59.61112722 -47.25 54.3125 C-50.48137067 49.18099235 -49.81883395 43.14304803 -49.25 37.3125 C-47.99221952 33.1675416 -45.78991626 30.75643115 -42.4375 28 C-34.33845974 23.7122728 -26.82999081 24.06914828 -17.8125 24.1875 C-16.50861328 24.19652344 -15.20472656 24.20554687 -13.86132812 24.21484375 C-10.65736168 24.23831603 -7.45377736 24.27115273 -4.25 24.3125 C-4.52812648 22.706635 -4.81819559 21.10283536 -5.11328125 19.5 C-5.35365112 18.16001953 -5.35365112 18.16001953 -5.59887695 16.79296875 C-6.56703437 13.10475001 -8.17579575 11.4986008 -11.25 9.3125 C-17.97979494 6.35139023 -25.16620751 6.95123584 -32.0390625 9.2421875 C-33.72457868 9.9233548 -35.39958902 10.63159096 -37.05859375 11.375 C-39.11506068 12.25477195 -41.06927746 12.83562218 -43.25 13.3125 C-47.27945885 6.96304969 -47.27945885 6.96304969 -47.15625 4.2421875 C-44.88189039 -0.60062995 -37.34203868 -2.29210668 -32.625 -4 C-21.36611527 -6.38477395 -10.1468338 -5.26854832 0 0 Z M-34.6875 36.9375 C-36.53311424 39.74283364 -36.87328744 41.99684347 -36.7109375 45.34375 C-35.92496482 48.70078586 -33.90348344 50.27610573 -31.25 52.3125 C-25.36981742 54.27256086 -18.64729157 54.14065527 -12.8125 52.125 C-9.36082915 49.68357428 -6.16617155 47.14484311 -4.25 43.3125 C-4.18003986 41.60547265 -4.16559846 39.89581997 -4.1875 38.1875 C-4.19652344 37.27742187 -4.20554687 36.36734375 -4.21484375 35.4296875 C-4.22644531 34.73101563 -4.23804688 34.03234375 -4.25 33.3125 C-7.60409194 33.25390143 -10.95805017 33.21870418 -14.3125 33.1875 C-15.72692383 33.16236328 -15.72692383 33.16236328 -17.16992188 33.13671875 C-23.60455005 33.09187814 -29.17817417 33.26461611 -34.6875 36.9375 Z " fill="#FEFEFE" transform="translate(376.25,672.6875)"/>
<path d="M0 0 C4.29 0 8.58 0 13 0 C17.58521112 8.94878062 21.6863128 18.00464333 25.625 27.25 C26.46911114 29.22768732 27.3143525 31.2048637 28.16244507 33.18084717 C28.92682763 34.96221927 29.68742326 36.74521499 30.44775391 38.52832031 C32.18509746 42.41398015 34.06600041 46.2093946 36 50 C36.26086899 49.38834488 36.52173798 48.77668976 36.79051208 48.14649963 C39.49652838 41.80305307 42.20589096 35.46104361 44.91723633 29.11987305 C45.92982206 26.7504517 46.94154253 24.38066039 47.95239258 22.01049805 C49.40220581 18.61149936 50.8550856 15.21382622 52.30859375 11.81640625 C52.76278183 10.74975235 53.21696991 9.68309845 53.68492126 8.5841217 C54.31546165 7.11270973 54.31546165 7.11270973 54.95874023 5.61157227 C55.32958237 4.74331314 55.7004245 3.87505402 56.08250427 2.98048401 C57 1 57 1 58 0 C60.18639453 -0.07258946 62.37500389 -0.08373783 64.5625 -0.0625 C66.35880859 -0.04896484 66.35880859 -0.04896484 68.19140625 -0.03515625 C69.11824219 -0.02355469 70.04507812 -0.01195312 71 0 C69.39008144 5.19602517 67.28063015 10.08332472 65.0703125 15.04296875 C64.68363907 15.91658051 64.29696564 16.79019226 63.89857483 17.6902771 C62.643527 20.52394062 61.38450456 23.35581489 60.125 26.1875 C59.2593665 28.13721961 58.39388868 30.08700834 57.52856445 32.03686523 C56.23307587 34.95574085 54.93729545 37.87448397 53.64027405 40.79267883 C51.17054698 46.35143298 48.71783983 51.91713461 46.28515625 57.4921875 C45.74680201 58.72120641 45.20823702 59.95013303 44.66943359 61.17895508 C43.71808791 63.35106378 42.77138837 65.52521671 41.83056641 67.7019043 C33.49679564 86.64645829 33.49679564 86.64645829 24 91 C17.63067889 93.12310704 9.71020926 92.94080534 3.375 90.6875 C0.49210514 89.24605257 -0.89550148 88.27668476 -3 86 C-1.66511872 82.40608886 -0.03977277 79.24509304 2 76 C2.53625 76.28875 3.0725 76.5775 3.625 76.875 C9.18268107 79.50758577 14.0198243 81.10047494 20 79 C22.31363038 76.84061165 23.50980818 75.64337913 25 73 C25.58571777 71.98244629 26.17143555 70.96489258 26.77490234 69.91650391 C28.09512111 66.77235899 28.04573855 65.08072369 26.84692383 61.8984375 C26.15969229 60.37856754 25.44448616 58.87114577 24.70703125 57.375 C24.32978409 56.55827316 23.95253693 55.74154633 23.56385803 54.90007019 C22.33632297 52.25529623 21.0746364 49.62841055 19.8125 47 C18.96810132 45.19310251 18.12647083 43.38490884 17.28759766 41.57543945 C15.63160843 38.00838271 13.96493066 34.44668851 12.28857422 30.88916016 C9.38021006 24.69998737 6.60134293 18.45907976 3.875 12.1875 C3.46870361 11.27162109 3.06240723 10.35574219 2.64379883 9.41210938 C2.28439209 8.58904297 1.92498535 7.76597656 1.5546875 6.91796875 C1.25030762 6.22469482 0.94592773 5.5314209 0.63232422 4.81713867 C0 3 0 3 0 0 Z " fill="#FFFFFF" transform="translate(1149,669)"/>
<path d="M0 0 C4.29 0 8.58 0 13 0 C13 9.24 13 18.48 13 28 C25.21 28 37.42 28 50 28 C50 18.76 50 9.52 50 0 C54.29 0 58.58 0 63 0 C63 22.11 63 44.22 63 67 C58.71 67 54.42 67 50 67 C50 57.76 50 48.52 50 39 C37.79 39 25.58 39 13 39 C13 48.24 13 57.48 13 67 C8.71 67 4.42 67 0 67 C0 44.89 0 22.78 0 0 Z " fill="#FFFFFF" transform="translate(1694,669)"/>
<path d="M0 0 C4.29 0 8.58 0 13 0 C13 9.24 13 18.48 13 28 C25.21 28 37.42 28 50 28 C50 18.76 50 9.52 50 0 C54.29 0 58.58 0 63 0 C63 22.11 63 44.22 63 67 C58.71 67 54.42 67 50 67 C50 57.76 50 48.52 50 39 C37.79 39 25.58 39 13 39 C13 48.24 13 57.48 13 67 C8.71 67 4.42 67 0 67 C0 44.89 0 22.78 0 0 Z " fill="#FFFFFF" transform="translate(970,669)"/>
<path d="M0 0 C17.16 0 34.32 0 52 0 C52 22.11 52 44.22 52 67 C47.71 67 43.42 67 39 67 C39 48.52 39 30.04 39 11 C29.76 11 20.52 11 11 11 C11.04125 13.0625 11.0825 15.125 11.125 17.25 C11.2216049 32.81919693 11.27387743 52.37427111 1 65 C-2.99831732 68.76312218 -7.35737831 68.28783689 -12.57421875 68.203125 C-15 68 -15 68 -17 67 C-17 63.7 -17 60.4 -17 57 C-14.78645833 56.47916667 -12.57291667 55.95833333 -10.359375 55.4375 C-6.67462526 53.19248691 -5.4322379 49.9791191 -4 46 C-3.34365105 43.25780196 -3.04048588 40.55749233 -2.8125 37.75 C-2.73845947 36.9863916 -2.66441895 36.2227832 -2.58813477 35.43603516 C-1.96258479 28.60544415 -1.60823851 21.75455086 -1.34106445 14.90136719 C-1.30972412 14.11665039 -1.27838379 13.33193359 -1.24609375 12.5234375 C-1.22216553 11.84200684 -1.1982373 11.16057617 -1.17358398 10.45849609 C-0.92651086 6.95916229 -0.43511947 3.4809558 0 0 Z " fill="#FFFFFF" transform="translate(952,819)"/>
<path d="M0 0 C17.16 0 34.32 0 52 0 C52 22.11 52 44.22 52 67 C47.71 67 43.42 67 39 67 C39 48.52 39 30.04 39 11 C29.76 11 20.52 11 11 11 C11 14.63 11 18.26 11 22 C9.57457309 55.22498668 9.57457309 55.22498668 1 65 C-3.89360363 68.64175154 -9.11521293 68.55037577 -15 68 C-15.66 67.67 -16.32 67.34 -17 67 C-17 63.37 -17 59.74 -17 56 C-14.78645833 55.77213542 -12.57291667 55.54427083 -10.359375 55.31640625 C-6.37211921 53.09172876 -5.33593465 49.21386596 -4 45 C-3.34638536 41.92325284 -3.04061019 38.88453226 -2.8125 35.75 C-2.73845947 34.90244141 -2.66441895 34.05488281 -2.58813477 33.18164062 C-1.97100469 25.73516498 -1.60811702 18.2703654 -1.34106445 10.80371094 C-1.29405396 9.55509277 -1.29405396 9.55509277 -1.24609375 8.28125 C-1.22216553 7.54970703 -1.1982373 6.81816406 -1.17358398 6.06445312 C-1 4 -1 4 0 0 Z " fill="#FFFFFF" transform="translate(1458,669)"/>
<path d="M0 0 C17.16 0 34.32 0 52 0 C52 22.11 52 44.22 52 67 C47.71 67 43.42 67 39 67 C39 48.52 39 30.04 39 11 C29.76 11 20.52 11 11 11 C11.04125 13.59875 11.0825 16.1975 11.125 18.875 C11.26689316 52.4389017 11.26689316 52.4389017 2.5 63.6875 C-1.49847306 67.38608758 -4.18225374 68.26818761 -9.625 68.1875 C-10.58664062 68.18105469 -11.54828125 68.17460938 -12.5390625 68.16796875 C-15 68 -15 68 -17 67 C-17.07442057 63.13013042 -17.04702186 59.7264085 -16 56 C-14.046875 55.70703125 -12.09375 55.4140625 -10.140625 55.12109375 C-6.77570719 53.35881015 -5.43906258 50.36977605 -4 47 C-3.16323515 43.8794591 -3.16323515 43.8794591 -2.875 40.5 C-2.8042627 39.85998047 -2.73352539 39.21996094 -2.66064453 38.56054688 C-1.35322939 25.75531672 -0.7747823 12.83924958 0 0 Z " fill="#FFFFFF" transform="translate(559,669)"/>
<path d="M0 0 C4.29 0 8.58 0 13 0 C13 9.24 13 18.48 13 28 C25.31099119 28.39205802 25.31099119 28.39205802 30.0859375 23.28125 C31.22293551 21.71623657 32.31930528 20.1209689 33.375 18.5 C34.48697917 16.92708333 35.59895833 15.35416667 36.7109375 13.78125 C38.39815165 11.33985842 40.07064312 8.89323267 41.70825195 6.41821289 C46.06556019 0.2192377 46.06556019 0.2192377 50.74609375 -0.87890625 C51.96425781 -0.77449219 53.18242187 -0.67007813 54.4375 -0.5625 C55.67371094 -0.48128906 56.90992188 -0.40007813 58.18359375 -0.31640625 C59.57771484 -0.15978516 59.57771484 -0.15978516 61 0 C59.35728782 3.71164158 57.05107313 6.68166296 54.5625 9.875 C54.13163086 10.43509766 53.70076172 10.99519531 53.25683594 11.57226562 C50.84104478 14.69980601 48.37100635 17.76713376 45.82421875 20.7890625 C45.31109131 21.4092627 44.79796387 22.02946289 44.26928711 22.66845703 C43.27080121 23.87215962 42.2575618 25.06380262 41.22875977 26.24169922 C39.66223606 28.06291715 39.66223606 28.06291715 38 31 C38.68492316 35.70512435 42.52954063 39.41782542 45.5 43 C46.58034442 44.32737891 47.65975431 45.65551892 48.73828125 46.984375 C49.55353271 47.98500977 49.55353271 47.98500977 50.38525391 49.00585938 C52.85696778 52.05831763 55.28111249 55.1459025 57.6875 58.25 C58.49574219 59.28640625 59.30398438 60.3228125 60.13671875 61.390625 C62 64 62 64 63 67 C57.66471554 67.77447678 52.26950901 68.46339436 47 67 C43.1617067 63.822947 40.77513914 60.15478246 38.1875 55.93457031 C36.14721251 52.6107138 33.95811091 49.41954037 31.6875 46.25 C31.31004639 45.6420459 30.93259277 45.0340918 30.54370117 44.40771484 C29.1797502 42.34273842 29.1797502 42.34273842 26 40 C21.71 39.67 17.42 39.34 13 39 C13 48.24 13 57.48 13 67 C8.71 67 4.42 67 0 67 C0 44.89 0 22.78 0 0 Z " fill="#FFFFFF" transform="translate(406,669)"/>
<path d="M0 0 C4.29 0 8.58 0 13 0 C13 7.26 13 14.52 13 22 C19.8350074 21.92151662 19.8350074 21.92151662 26.66967773 21.81982422 C36.16484058 21.76536034 44.48665101 22.7955376 52 29 C57.29075125 35.64735413 57.60760149 41.73432688 57 50 C55.96676847 55.54532518 53.60510835 59.25944338 49.09275818 62.65275574 C42.82702158 66.68641704 36.09459395 67.4373623 28.80859375 67.29296875 C27.70167175 67.28843689 27.70167175 67.28843689 26.5723877 67.28381348 C23.86061268 67.26831921 21.14903971 67.22643811 18.4375 67.1875 C12.353125 67.125625 6.26875 67.06375 0 67 C0 44.89 0 22.78 0 0 Z M13 32 C13 40.25 13 48.5 13 57 C18.011875 57.0928125 18.011875 57.0928125 23.125 57.1875 C24.16672363 57.21481201 25.20844727 57.24212402 26.28173828 57.27026367 C31.6094148 57.31791456 35.43305816 57.07112387 40 54 C42.82657232 50.72712679 43.90879625 48.7426591 44.4375 44.4375 C43.96474659 40.72300894 43.33772514 38.90200363 41 36 C34.99718734 31.57687488 28.83058182 31.86477559 21.6875 31.9375 C18.820625 31.958125 15.95375 31.97875 13 32 Z " fill="#FBFCFD" transform="translate(1593,669)"/>
<path d="M0 0 C4.29 0 8.58 0 13 0 C13 7.26 13 14.52 13 22 C16.2175 21.938125 19.435 21.87625 22.75 21.8125 C42.22862679 21.70903385 42.22862679 21.70903385 50.0625 27.75 C55.13852865 32.83840921 56.17850524 37.42845442 56.4375 44.4375 C56.23739715 52.0153079 54.51674112 56.42606022 49.25 61.8125 C42.56134479 66.31447947 36.77280183 67.44784454 28.90625 67.29296875 C27.79781738 67.28843689 27.79781738 67.28843689 26.66699219 67.28381348 C23.94451643 67.26828764 21.22224203 67.22640557 18.5 67.1875 C9.3425 67.0946875 9.3425 67.0946875 0 67 C0 44.89 0 22.78 0 0 Z M13 32 C13 40.25 13 48.5 13 57 C17.764375 57.0928125 17.764375 57.0928125 22.625 57.1875 C23.6145166 57.21481201 24.6040332 57.24212402 25.62353516 57.27026367 C31.73231763 57.327684 35.96543426 56.51136475 40.8125 52.5 C43.5698648 49.01701288 43.29206134 45.23488949 43 41 C41.19378724 36.81719151 39.06519629 34.98302258 35 33 C32.15748025 32.13953181 29.63568005 31.88117371 26.671875 31.90234375 C25.5905127 31.90609009 25.5905127 31.90609009 24.48730469 31.90991211 C23.13233887 31.92356812 23.13233887 31.92356812 21.75 31.9375 C17.41875 31.9684375 17.41875 31.9684375 13 32 Z " fill="#FBFCFD" transform="translate(870,669)"/>
<path d="M0 0 C3.47379677 2.76049148 5.67324398 5.16706407 6.83984375 9.57421875 C4.19984375 11.55421875 1.55984375 13.53421875 -1.16015625 15.57421875 C-4.67495835 13.8168177 -7.12728452 12.00051613 -10.16015625 9.57421875 C-14.99188743 6.51412234 -20.20759805 6.21255785 -25.72265625 7.26171875 C-32.75741311 9.08908343 -36.49627784 12.47096391 -40.1796875 18.57421875 C-43.11607413 24.56397952 -42.82244087 30.99126241 -40.97265625 37.26171875 C-38.63924361 43.54896948 -34.37966123 47.08744014 -28.39453125 49.84375 C-21.55313029 52.08036185 -15.3371217 50.85964336 -9.01171875 47.73046875 C-6.78544486 46.34022176 -5.40156013 44.891506 -4.16015625 42.57421875 C0.35462773 43.10536981 3.18651232 44.94042167 6.83984375 47.57421875 C5.47336452 53.21094555 1.35854075 56.32011253 -3.16015625 59.57421875 C-11.47386981 64.42534971 -22.7491997 64.52127059 -31.8828125 62.30078125 C-41.65792192 59.18213571 -47.90867348 53.94139091 -52.90234375 45.0390625 C-57.26836914 36.48327982 -57.4439003 26.49761311 -55.03515625 17.26171875 C-52.25104931 9.21002919 -46.52788983 2.34707938 -38.921875 -1.58203125 C-26.43033494 -7.30646859 -11.80282138 -7.79028897 0 0 Z " fill="#FFFFFF" transform="translate(1139.16015625,673.42578125)"/>
<path d="M0 0 C20.13 0 40.26 0 61 0 C61 3.63 61 7.26 61 11 C53.08 11 45.16 11 37 11 C37 29.48 37 47.96 37 67 C32.71 67 28.42 67 24 67 C24 48.52 24 30.04 24 11 C16.08 11 8.16 11 0 11 C0 7.37 0 3.74 0 0 Z " fill="#FFFFFF" transform="translate(1521,669)"/>
<path d="M0 0 C16.5 0 33 0 50 0 C50 3.63 50 7.26 50 11 C37.79 11 25.58 11 13 11 C13 29.48 13 47.96 13 67 C8.71 67 4.42 67 0 67 C0 44.89 0 22.78 0 0 Z " fill="#FFFFFF" transform="translate(1317,669)"/>
<path d="M0 0 C4.29 0 8.58 0 13 0 C13 22.11 13 44.22 13 67 C8.71 67 4.42 67 0 67 C0 44.89 0 22.78 0 0 Z " fill="#FFFFFF" transform="translate(1659,669)"/>
<path d="M0 0 C4.29 0 8.58 0 13 0 C13 22.11 13 44.22 13 67 C8.71 67 4.42 67 0 67 C0 44.89 0 22.78 0 0 Z " fill="#FFFFFF" transform="translate(935,669)"/>
</svg>
